<svg width="29" height="31" viewBox="0 0 29 31" fill="none" xmlns="http://www.w3.org/2000/svg">
<path fill-rule="evenodd" clip-rule="evenodd" d="M22.5123 29.2553L18.7787 25.9095C21.4691 26.2896 24.3032 25.4721 26.3754 23.4573C29.8749 20.0547 29.8749 14.5284 26.3754 11.1257L15.2421 0.30069C14.8297 -0.100311 14.1703 -0.100311 13.7579 0.30069L2.6246 11.1257C-0.874901 14.5284 -0.874903 20.0547 2.6246 23.4573C4.69681 25.4722 7.53094 26.2896 10.2214 25.9095L6.48773 29.2552C5.80441 29.8676 6.23755 31 7.15509 31H21.8449C22.7625 31 23.1956 29.8676 22.5123 29.2553ZM13.4124 24.8839L13.7061 24.375L13.1016 23.899H9V23.8914C7.23101 23.9082 5.45658 23.2612 4.1086 21.9506C1.4594 19.3747 1.4594 15.2081 4.1086 12.6322L14.4998 2.52881L24.8909 12.6322C27.5401 15.2081 27.5401 19.3747 24.8909 21.9506C23.5431 23.2611 21.7688 23.9081 20 23.8914V23.899H15.8984L15.2939 24.375L15.5876 24.8838L19.295 28.6624C19.6054 28.9787 19.3813 29.5126 18.9381 29.5126H10.0619C9.61874 29.5126 9.39463 28.9787 9.705 28.6624L13.4124 24.8839Z" fill="white"/>
</svg>
